<svg xmlns="http://www.w3.org/2000/svg" viewBox="0 0 220.8 44.9"><defs><style>.cls-1{fill:#fff;}</style></defs><g id="Layer_2" data-name="Layer 2"><g id="Layer_1-2" data-name="Layer 1"><path class="cls-1" d="M38.19,26.05a2.32,2.32,0,0,0,1,2.19,2.7,2.7,0,0,0,.56.29h0A16.71,16.71,0,0,1,44.9,33V44.9H15A17.21,17.21,0,0,1,15,41.39,16.92,16.92,0,0,1,27.26,27.06l0,0a2.09,2.09,0,0,0,.61-.14,2.35,2.35,0,0,0,.33-4.2,2.44,2.44,0,0,0-.43-.21A19.71,19.71,0,0,1,22,18.23a1.87,1.87,0,0,0-.64-.73,2.3,2.3,0,0,0-1.07-.42,2.33,2.33,0,0,0-2.45,1.51,2.28,2.28,0,0,0-.13.53,2.51,2.51,0,0,0,.06.87c0,.19,0,.38,0,.58A16.84,16.84,0,0,1,0,35.45V1.71a16.33,16.33,0,0,1,3,.08,16.6,16.6,0,0,1,9.39,4.36l.08.08a1.38,1.38,0,0,0,.29.3A2.31,2.31,0,0,0,16.55,5a.53.53,0,0,0,0-.18,2.29,2.29,0,0,0,0-.37,19,19,0,0,1,.14-2.24A19.47,19.47,0,0,1,17.08,0H44.9V22.38A19.37,19.37,0,0,1,40.29,24a2.83,2.83,0,0,0-.47.1A2.33,2.33,0,0,0,38.19,26.05Z"/><path class="cls-1" d="M85.31,35.8v9.1H53.79V.05H84.74V9.14H64.15v8.72H81.84v8.4H64.15V35.8Z"/><path class="cls-1" d="M127,44.9V18.11l-9.73,19.46h-5.62L102,18.11V44.9H91.62V.05h11.25l11.62,23.43L126.11.05h11.25V44.9Z"/><path class="cls-1" d="M177.47,35.8v9.1H146V.05h31V9.14H156.31v8.72H174v8.4H156.31V35.8Z"/><path class="cls-1" d="M220.8,33.34a10,10,0,0,1-2,6.44,12.32,12.32,0,0,1-5.5,3.82,21.71,21.71,0,0,1-7.7,1.3h-21.8V.05h24.89a9.1,9.1,0,0,1,5.47,1.67,11,11,0,0,1,3.53,4.33,12.8,12.8,0,0,1,1.24,5.5,12.45,12.45,0,0,1-1.61,6,9.7,9.7,0,0,1-4.84,4.32,11.64,11.64,0,0,1,6.1,4.05A11.76,11.76,0,0,1,220.8,33.34ZM194.14,8.89v9.29h10.11a4.82,4.82,0,0,0,2.21-.51,3.78,3.78,0,0,0,1.61-1.51,5,5,0,0,0,.6-2.59,5.57,5.57,0,0,0-.53-2.59,3.78,3.78,0,0,0-3.51-2.09Zm16.17,22.43a5.56,5.56,0,0,0-.56-2.53,4.84,4.84,0,0,0-1.49-1.8,3.73,3.73,0,0,0-2.24-.66H194.14v9.79h11.44a4.79,4.79,0,0,0,2.46-.63,4.59,4.59,0,0,0,1.68-1.71A5.08,5.08,0,0,0,210.31,31.32Z"/></g></g></svg>